<?xml version="1.0" encoding="utf-8"?>
<!-- Generator: Adobe Illustrator 19.0.0, SVG Export Plug-In . SVG Version: 6.00 Build 0)  -->
<svg version="1.1" id="Layer_1" xmlns="http://www.w3.org/2000/svg" xmlns:xlink="http://www.w3.org/1999/xlink" x="0px" y="0px"
	 viewBox="0 0 566.9 566.9" enable-background="new 0 0 566.9 566.9" xml:space="preserve">
<g id="XMLID_1_">
	<g id="XMLID_270_">
		<g id="XMLID_119_">
			<g id="XMLID_338_">
				<path id="XMLID_1121_" fill="#62C6FF" d="M188.7,424.4c-54.5,0-98.8-44.3-98.8-98.8V136c0-54.5,44.3-98.8,98.8-98.8h189.6
					c54.5,0,98.8,44.3,98.8,98.8v189.6c0,54.5-44.3,98.8-98.8,98.8H188.7z"/>
			</g>
			<g id="XMLID_332_">
				<path id="XMLID_1117_" fill="#231F20" d="M378.3,44.3c50.6,0,91.8,41.2,91.8,91.8v189.6c0,50.6-41.2,91.8-91.8,91.8H188.7
					c-50.6,0-91.8-41.2-91.8-91.8V136c0-50.6,41.2-91.8,91.8-91.8H378.3 M378.3,30.3H188.7C130.2,30.3,82.9,77.6,82.9,136v189.6
					c0,58.4,47.4,105.8,105.8,105.8h189.6c58.4,0,105.8-47.4,105.8-105.8V136C484,77.6,436.7,30.3,378.3,30.3L378.3,30.3z"/>
			</g>
		</g>
		<g id="XMLID_272_" opacity="0.15">
			<path id="XMLID_503_" d="M184.8,308.7l79.7,109.7l134.3-1.1c0,0,74.3-16.4,74.3-94.3v-46l-93.5-128.5l-46.4-17.2L184.8,308.7z"/>
		</g>
		<g id="XMLID_120_">
			<g id="XMLID_488_">
				<path id="XMLID_1111_" fill="#92D8F7" d="M248.5,335.4c-38.6,0-70-31.4-70-70v-140h140c38.6,0,70,31.4,70,70v140H248.5z"/>
			</g>
			<g id="XMLID_176_">
				<path id="XMLID_1106_" fill="#231F20" d="M318.4,132.4c34.7,0,63,28.3,63,63v133h-133c-34.7,0-63-28.3-63-63v-133H318.4
					 M318.4,118.4H171.5v146.9c0,42.5,34.5,77,77,77h146.9V195.4C395.4,152.9,361,118.4,318.4,118.4L318.4,118.4z"/>
			</g>
		</g>
		<g id="XMLID_123_">
			<path id="XMLID_575_" fill="#231F20" d="M283.1,228.8c-7.2,0-14-2.8-19.1-7.9l-89.4-89.4l9.9-9.9l89.4,89.4
				c2.5,2.5,5.9,3.8,9.4,3.8c3.5,0,6.8-1.5,9.3-4l70-73.1l10.1,9.7l-70,73.1c-5.1,5.3-11.9,8.2-19.2,8.3
				C283.3,228.8,283.2,228.8,283.1,228.8z"/>
		</g>
	</g>
	<g id="XMLID_274_">
		<g id="XMLID_275_">
			<g id="XMLID_330_">
				<path id="XMLID_1100_" fill="#231F20" d="M115.5,531.6c-6.8,0-13.3-2.4-19.5-7.2c-3.1-2.4-5.6-5.6-7.5-9.5
					c-1.9-3.9-2.9-8.3-2.9-13c0-4.7,1-9,2.9-12.9c1.9-3.9,4.4-7,7.5-9.4c5.9-4.7,12.4-7.1,19.3-7.1c2.8,0,5.5,0.4,8.2,1.2
					c2.6,0.8,4.6,1.5,6,2.3l1.6,1c1.3,0.8,2.2,1.5,2.8,1.9c3.6,2.7,4.3,5.7,4.3,7.8c0,2.5-0.9,5-2.7,7.8c-3.1,4.8-6.4,7.1-10.1,7.1
					c-2.1,0-4.4-0.9-7.4-2.7l-0.4-0.2l-0.3-0.3c-0.3-0.3-1-0.4-1.9-0.4c-1.1,0-2.1,0.4-3.2,1.3c-0.6,0.5-1.2,1.2-1.2,3
					c0,1.8,0.6,2.5,1.1,2.9c1.3,1.1,2.2,1.2,2.8,1.2c1.1,0,2.1-0.3,3.2-1c2.5-1.7,4.6-2.5,6.6-2.5c3.3,0,6.6,2.1,10.2,6.6
					c2.1,2.7,3.1,5.1,3.1,7.6c0,3.9-2.4,7.4-7.1,10.3C126.7,530.1,121.5,531.6,115.5,531.6z"/>
			</g>
			<g id="XMLID_278_">
				<path id="XMLID_1096_" fill="#62C6FF" d="M115.3,476.7c2.4,0,4.7,0.3,7,1c2.3,0.7,3.9,1.3,5,1.9l1.5,0.9c1.1,0.8,2,1.4,2.6,1.8
					c1.6,1.3,2.4,2.7,2.4,4.3c0,1.6-0.7,3.4-2,5.4c-2.3,3.5-4.4,5.2-6.5,5.2c-1.2,0-2.9-0.7-5.1-2.1c-1.1-1.1-2.7-1.6-4.8-1.6
					s-4.1,0.8-5.9,2.3c-1.8,1.5-2.7,3.6-2.7,6.3c0,2.7,0.9,4.7,2.6,6.2c1.8,1.5,3.6,2.2,5.6,2.2c2,0,3.8-0.6,5.6-1.7
					c1.7-1.2,3.1-1.7,4.2-1.7c1.9,0,4.2,1.7,6.9,5c1.4,1.8,2.2,3.5,2.2,4.9c0,2.4-1.7,4.6-5.2,6.7c-3.6,2.5-8,3.8-13.2,3.8
					c-5.8,0-11.4-2.1-16.8-6.3c-2.6-2-4.7-4.7-6.3-8c-1.6-3.4-2.4-7.1-2.4-11.1s0.8-7.7,2.4-11c1.6-3.3,3.7-5.9,6.3-8
					C103.9,478.8,109.4,476.7,115.3,476.7 M115.3,468.2c-7.9,0-15.2,2.7-22,8.1c-3.5,2.7-6.4,6.4-8.6,10.9
					c-2.2,4.5-3.3,9.4-3.3,14.8c0,5.3,1.1,10.3,3.3,14.8c2.2,4.5,5.1,8.2,8.7,11c6.9,5.4,14.4,8.1,22.1,8.1c6.9,0,12.9-1.7,17.8-5.1
					c7.5-4.6,9.1-10.1,9.1-13.9c0-3.4-1.4-6.8-4-10.2c-1.1-1.4-2.5-3-4.2-4.4c1.7-1.4,3.3-3.3,4.8-5.6c2.2-3.4,3.4-6.8,3.4-10.1
					c0-4.3-2.1-8.2-5.8-11.1l-0.2-0.1l-0.2-0.1c-0.7-0.5-1.6-1.1-2.8-1.9l-0.1-0.1l-0.1-0.1l-1.5-0.9l-0.1-0.1l-0.1-0.1
					c-1.7-1-3.9-1.9-6.9-2.8C121.7,468.6,118.5,468.2,115.3,468.2L115.3,468.2z"/>
			</g>
		</g>
		<g id="XMLID_277_">
			<g id="XMLID_328_">
				<path id="XMLID_1093_" fill="#231F20" d="M181.2,531.1c-1.8,0-6.8,0-9.7-3c0,0-0.1,0-0.1,0.1c-2.9,1.9-6.1,2.8-9.4,2.8
					c-7.6,0-14-2.9-19-8.7c-4.8-5.6-7.3-12.4-7.3-20.4v-16.5c0-1.7,0.1-3,0.2-3.9c0.2-1.1,0.5-2.3,1.2-3.7c2.6-5,9.1-5,11.2-5
					c8,0,10.9,3.6,11.8,6.6c0.5,1.3,0.8,3.3,0.8,6.1V502c0,2.1,0.7,2.7,0.9,3c0.4,0.4,1.2,0.9,2.9,0.9c1.8,0,2.6-0.6,3-1
					c0.5-0.5,1-1.2,1-2.9v-16.7c0-1.6,0.1-2.9,0.2-3.8c0.2-1.3,0.6-2.6,1.4-4c2.4-4.7,8.9-4.7,11-4.7c2.1,0,8.5,0,11,4.8
					c0.7,1.5,1.1,2.7,1.2,3.9c0.1,0.9,0.2,2.2,0.2,3.8v33.3c0,1.6-0.1,2.8-0.2,3.7c-0.2,1.3-0.6,2.6-1.4,4
					C189.5,531.1,183.2,531.1,181.2,531.1z"/>
			</g>
			<g id="XMLID_282_">
				<path id="XMLID_1089_" fill="#62C6FF" d="M181.3,477.2c4,0,6.4,0.8,7.2,2.5c0.4,0.9,0.7,1.8,0.8,2.5c0.1,0.7,0.1,1.8,0.1,3.2
					v33.3c0,1.4,0,2.4-0.1,3.2c-0.1,0.7-0.4,1.5-0.9,2.4c-0.9,1.6-3.4,2.4-7.2,2.4c-3.8,0-6.2-0.8-7.1-2.3c-0.6-1.1-0.9-2.4-0.9-3.9
					c-0.3,0.4-0.8,1.1-1.7,1.9c-0.9,0.8-1.7,1.5-2.5,2.1c-2.1,1.4-4.5,2.1-7,2.1c-6.3,0-11.6-2.4-15.8-7.2
					c-4.2-4.8-6.3-10.6-6.3-17.5v-16.5c0-1.5,0-2.6,0.1-3.3c0.1-0.7,0.4-1.5,0.8-2.4c0.9-1.7,3.3-2.5,7.3-2.5c4.4,0,7,1.2,7.7,3.6
					c0.4,1,0.6,2.6,0.6,4.8V502c0,2.6,0.7,4.6,2.2,6c1.5,1.4,3.5,2.2,5.9,2.2s4.5-0.8,6-2.3c1.5-1.5,2.3-3.5,2.3-5.9v-16.7
					c0-1.4,0-2.5,0.1-3.2c0.1-0.7,0.4-1.6,0.9-2.5C174.8,478,177.3,477.2,181.3,477.2 M181.3,468.6c-7.4,0-12.4,2.4-14.8,7.1
					c-0.9,1.7-1.5,3.3-1.7,4.9c-0.2-1-0.4-1.8-0.7-2.6c-1.2-3.6-4.8-9.3-15.8-9.3c-7.4,0-12.5,2.4-14.9,7.2l-0.1,0.2l-0.1,0.2
					c-0.8,1.7-1.3,3.3-1.5,4.9c-0.2,1.1-0.2,2.5-0.2,4.5v16.5c0,9,2.8,16.8,8.4,23.2c5.8,6.6,13.4,10.1,22.2,10.1
					c3.2,0,6.3-0.7,9.2-2.1c2.6,1.4,5.9,2.2,10,2.2c7.2,0,12.1-2.3,14.7-6.7c1.1-1.9,1.7-3.7,2-5.6c0.1-1.1,0.2-2.5,0.2-4.3v-33.3
					c0-1.8-0.1-3.2-0.2-4.3c-0.2-1.6-0.7-3.3-1.5-5l-0.1-0.2l-0.1-0.2C193.7,471.1,188.7,468.6,181.3,468.6L181.3,468.6z"/>
			</g>
		</g>
		<g id="XMLID_281_">
			<g id="XMLID_326_">
				<path id="XMLID_1086_" fill="#231F20" d="M223.2,531.2c-7.6,0-13.5-1.8-17.7-5.5c-4.3-3.8-6.5-9.9-6.5-18.2v-9.4
					c-2.5-0.1-4.6-1.2-6.3-3.1c-1.6-1.9-2.4-4.6-2.4-8.2c0-3,0.2-5.2,0.6-6.7c0.5-2,1.4-3.5,2.6-4.6c1.6-1.3,3.4-2.1,5.4-2.3v-5.1
					c0-1.6,0.1-2.9,0.2-3.8c0.2-1.3,0.7-2.5,1.4-3.8c2.5-4.5,8.8-4.5,11-4.5c7.8,0,10.6,3.4,11.7,6.3c0.5,1.6,0.7,3.5,0.7,6.2v4.6
					c0.8,0,1.4-0.1,2-0.1c1.6,0,2.8,0.1,3.8,0.2c1.3,0.2,2.5,0.6,3.9,1.4c4.7,2.4,4.7,8.9,4.7,11c0,2.1,0,8.5-4.9,11
					c-1.5,0.7-2.7,1.1-3.9,1.2c-0.9,0.1-2.2,0.2-3.8,0.2l-1.8-0.1v8.4c0,0.2,0,0.4,0,0.5c1.4,0,2.6,0.1,3.4,0.2
					c1.3,0.2,2.7,0.6,4.1,1.4c4.3,2.4,4.3,8.1,4.3,10c0,5.7-1.7,9.4-5,11.1c-1.5,0.7-2.7,1.1-3.9,1.2
					C226,531.1,224.8,531.2,223.2,531.2z"/>
			</g>
			<g id="XMLID_292_">
				<path id="XMLID_1082_" fill="#62C6FF" d="M211.6,460.4c4.3,0,6.8,1.2,7.6,3.5c0.3,1,0.5,2.6,0.5,4.8v9.2
					c2.8-0.2,4.8-0.4,6.3-0.4c1.4,0,2.5,0,3.2,0.1c0.7,0.1,1.6,0.4,2.5,0.9c1.6,0.8,2.4,3.2,2.4,7.2c0,4-0.8,6.4-2.5,7.2
					c-0.9,0.4-1.8,0.7-2.5,0.8c-0.7,0.1-1.8,0.1-3.2,0.1l-6.1-0.4v13c0,1.7,0.3,2.9,0.8,3.7c0.5,0.8,1.5,1.1,3,1.1s2.6,0,3.4,0.1
					c0.8,0.1,1.6,0.4,2.5,0.9c1.4,0.8,2.2,2.9,2.2,6.3c0,4-0.9,6.4-2.6,7.2c-0.9,0.4-1.8,0.7-2.5,0.8c-0.7,0.1-1.8,0.1-3.2,0.1
					c-6.5,0-11.5-1.5-14.9-4.4c-3.4-2.9-5.1-7.9-5.1-15v-13.9c-1.2,0.2-2.5,0.3-3.9,0.3s-2.5-0.5-3.4-1.6c-0.9-1.1-1.4-2.9-1.4-5.5
					c0-2.6,0.2-4.4,0.5-5.6c0.3-1.2,0.8-2,1.3-2.5c1-0.8,2.3-1.2,3.8-1.2l3.1,0.4v-9.7c0-1.4,0-2.5,0.1-3.2c0.1-0.7,0.4-1.4,0.9-2.3
					C205.1,461.1,207.6,460.4,211.6,460.4 M211.6,451.8c-7.3,0-12.2,2.2-14.7,6.7c-1,1.8-1.7,3.6-1.9,5.4c-0.2,1.1-0.2,2.5-0.2,4.4
					v1.7c-1.3,0.5-2.6,1.2-3.7,2.1l-0.2,0.1l-0.1,0.1c-1.8,1.6-3.1,3.9-3.9,6.7c-0.5,1.9-0.8,4.4-0.8,7.8c0,4.7,1.1,8.3,3.4,11
					c1.5,1.7,3.2,3,5.2,3.7v5.9c0,9.6,2.7,16.8,8,21.4c5,4.3,11.9,6.5,20.5,6.5c1.8,0,3.1-0.1,4.3-0.2c1.6-0.2,3.2-0.7,5-1.5l0.1,0
					l0.1,0c3.4-1.7,7.4-5.6,7.4-14.9c0-6.7-2.2-11.3-6.5-13.8c-1.7-1-3.5-1.6-5.3-1.9v-0.6c0.7,0,1.4-0.1,1.9-0.2
					c1.6-0.2,3.3-0.7,5-1.5l0.2-0.1l0.2-0.1c4.8-2.5,7.2-7.5,7.2-14.8c0-7.4-2.4-12.4-7.1-14.8c-1.8-1-3.6-1.6-5.3-1.8
					c-0.6-0.1-1.3-0.1-2-0.2v-0.3c0-3.1-0.3-5.5-0.9-7.3l0-0.2l-0.1-0.2C226.1,457.6,222.4,451.8,211.6,451.8L211.6,451.8z"/>
			</g>
		</g>
		<g id="XMLID_283_">
			<g id="XMLID_324_">
				<path id="XMLID_1079_" fill="#231F20" d="M262.7,532.4c-5.2,0-10-0.9-14.1-2.8c-4.3-1.9-7.7-4.5-10.1-7.7
					c-4.5-5.8-6.8-12.4-6.8-19.6c0-9.1,3-16.5,9-22.1c5.9-5.5,13.3-8.2,22.1-8.2c10.2,0,17.9,3.7,22.8,11.1c2.6,4,3.9,8.4,3.9,13
					c0,5-1.4,9-4.2,11.6c-0.8,0.8-1.6,1.4-2.5,2c0.9,0.9,1.7,2.1,2.5,3.7c1.2,2.4,1.7,4.4,1.7,6.3
					C287,528.1,278.8,532.4,262.7,532.4z"/>
			</g>
			<g id="XMLID_295_">
				<path id="XMLID_1074_" fill="#62C6FF" d="M262.8,476.3c8.7,0,15.1,3.1,19.2,9.2c2.1,3.3,3.2,6.8,3.2,10.7c0,3.9-1,6.7-2.9,8.6
					c-1.9,1.9-4,2.8-6.4,2.8h-22.3c0,1.8,1,3.2,3.1,4.4c2.1,1.2,4.1,1.8,6.2,1.8c3.6,0,6.5-0.4,8.6-1.1l1-0.4c1.5-0.7,2.8-1,3.8-1
					c2,0,3.7,1.4,5.2,4.2c0.8,1.7,1.2,3.1,1.2,4.3c0,5.6-6.7,8.4-20,8.4c-4.6,0-8.8-0.8-12.4-2.4c-3.6-1.6-6.4-3.7-8.4-6.4
					c-4-5.1-5.9-10.8-5.9-17c0-7.9,2.6-14.2,7.7-19C248.7,478.6,255.1,476.3,262.8,476.3 M253.4,498.9h11.9c2.4,0,3.6-1,3.6-3
					c0-1.4-0.5-2.6-1.6-3.5c-1.1-0.9-2.7-1.3-4.7-1.3s-4.1,0.8-6.1,2.5C254.4,495.3,253.4,497.1,253.4,498.9 M262.8,467.7
					c-9.8,0-18.2,3.2-25,9.4c-6.9,6.4-10.4,14.9-10.4,25.2c0,8.2,2.6,15.7,7.7,22.3c2.8,3.7,6.8,6.7,11.7,8.9
					c4.7,2.1,10,3.1,15.8,3.1c23.6,0,28.6-9.2,28.6-16.9c0-2.5-0.7-5.1-2.1-8l0-0.1l0-0.1c-0.2-0.3-0.3-0.7-0.5-1
					c3.4-3.5,5.1-8.3,5.1-14.4c0-5.5-1.5-10.7-4.6-15.4C285.1,474.8,277.4,467.7,262.8,467.7L262.8,467.7z"/>
			</g>
		</g>
		<g id="XMLID_294_">
			<g id="XMLID_320_">
				<path id="XMLID_1071_" fill="#231F20" d="M355.5,531.2c-5.7,0-9.4-1.7-11.1-5c-0.7-1.5-1.1-2.7-1.2-3.9
					c-0.1-0.9-0.2-2.2-0.2-3.8V502c0-3.9-1-3.9-1.6-3.9c-0.7,0-0.9,0.1-0.9,0.1c-0.1,0.3-0.5,1.4-0.5,3.9v16.5c0,1.7-0.1,3-0.2,3.9
					c-0.2,1.2-0.6,2.5-1.4,3.9c-2.5,4.8-9,4.8-11.1,4.8c-5.7,0-9.4-1.7-11.1-5c-0.7-1.5-1.1-2.7-1.2-3.9c-0.1-0.9-0.2-2.2-0.2-3.8
					V502c0-3.9-1-3.9-1.6-3.9c-0.4,0-1.4,0-1.4,3.9v16.7c0,1.6-0.1,2.9-0.2,3.8c-0.2,1.2-0.6,2.5-1.4,3.9c-2.7,4.7-9,4.7-11.1,4.7
					c-2.1,0-8.5,0-11-4.8c-0.7-1.5-1.1-2.7-1.2-3.8c-0.1-0.9-0.2-2.2-0.2-3.9v-33.1c0-1.6,0.1-2.9,0.2-3.8c0.2-1.3,0.6-2.6,1.4-4
					c1.7-3.1,5.2-4.7,10.4-4.7c4.8,0,8,1,10,3c3.3-2.5,6.6-3.1,9.1-3.1c5.9,0,10.8,2,14.5,5.7c1.2-1.1,2.8-2.2,4.8-3.3
					c2.8-1.6,5.7-2.4,8.7-2.4c6.3,0,11.6,2.4,15.8,7.2c4.1,4.7,6.1,11.9,6.1,22v16.5c0,1.6-0.1,2.9-0.2,3.8c-0.2,1.3-0.6,2.6-1.4,4
					C364.3,531.2,357.7,531.2,355.5,531.2z"/>
			</g>
			<g id="XMLID_297_">
				<path id="XMLID_1030_" fill="#62C6FF" d="M346.1,477.2c5,0,9.2,1.9,12.6,5.8c3.4,3.9,5.1,10.2,5.1,19.1v16.5
					c0,1.4,0,2.5-0.1,3.2c-0.1,0.7-0.4,1.6-0.9,2.5c-0.8,1.7-3.2,2.5-7.2,2.5c-4,0-6.4-0.9-7.2-2.6c-0.4-0.9-0.7-1.8-0.8-2.5
					c-0.1-0.7-0.1-1.8-0.1-3.2V502c0-5.5-1.9-8.2-5.8-8.2c-2.2,0-3.7,0.7-4.5,2.2c-0.8,1.4-1.2,3.5-1.2,6.1v16.5
					c0,1.5,0,2.6-0.1,3.3c-0.1,0.7-0.4,1.5-0.9,2.4c-0.9,1.7-3.3,2.5-7.3,2.5c-4,0-6.4-0.9-7.2-2.6c-0.4-0.9-0.7-1.8-0.8-2.5
					c-0.1-0.7-0.1-1.8-0.1-3.2V502c0-5.5-1.9-8.2-5.8-8.2c-3.8,0-5.6,2.7-5.6,8.2v16.7c0,1.4,0,2.5-0.1,3.2
					c-0.1,0.7-0.4,1.6-0.9,2.5c-0.9,1.6-3.4,2.4-7.3,2.4c-4,0-6.4-0.8-7.2-2.5c-0.4-0.9-0.7-1.8-0.8-2.4c-0.1-0.7-0.1-1.8-0.1-3.3
					v-33.1c0-1.4,0-2.5,0.1-3.2c0.1-0.7,0.4-1.5,0.9-2.4c0.9-1.7,3.2-2.5,6.7-2.5c3.5,0,5.8,0.6,6.9,1.7c1.1,1.1,1.6,2.8,1.6,4.9
					c2.9-4.5,6.5-6.7,10.6-6.7c6.4,0,11.2,2.7,14.3,8.2c0.7-0.9,1.5-1.9,2.5-3c1-1,2.5-2.2,4.7-3.4
					C341.7,477.8,343.9,477.2,346.1,477.2 M346.1,468.6c-3.8,0-7.4,1-10.8,3c-0.9,0.5-1.7,1-2.5,1.5c-4.1-3-9-4.5-14.7-4.5
					c-2.6,0-5.7,0.5-9,2.2c-3.3-1.8-7.2-2.1-10.1-2.1c-8.5,0-12.4,3.8-14.2,6.9c-1,1.8-1.7,3.6-1.9,5.4c-0.1,1.1-0.2,2.5-0.2,4.4
					v33.1c0,1.9,0.1,3.3,0.2,4.4c0.2,1.6,0.7,3.2,1.5,4.9l0.1,0.2l0.1,0.2c2.5,4.8,7.5,7.2,14.8,7.2c6.7,0,11.4-1.9,14.1-5.7
					c2.1,2.9,6.1,5.7,13.9,5.7c6.7,0,11.4-1.9,14.1-5.8c2.1,2.9,6.1,5.8,13.9,5.8c7.5,0,12.5-2.4,14.9-7.2c1-1.8,1.5-3.5,1.8-5.3
					c0.1-1.1,0.2-2.5,0.2-4.4v-16.5c0-11.2-2.4-19.3-7.2-24.8C360.2,471.6,353.6,468.6,346.1,468.6L346.1,468.6z"/>
			</g>
		</g>
		<g id="XMLID_296_">
			<g id="XMLID_313_">
				<path id="XMLID_1025_" fill="#231F20" d="M412.5,531c-4.5,0-7.4-0.6-9.4-2.1c-0.2-0.1-0.4-0.3-0.6-0.4
					c-2.8,1.7-6.4,2.5-10.6,2.5c-6.6,0-12.8-3-18.2-8.8c-5.4-5.8-8.1-12.5-8.1-20.2c0-7.7,2.8-14.4,8.2-20.2
					c5.5-5.8,11.7-8.7,18.5-8.7c2.7,0,5.2,0.5,7.5,1.5c0.9,0.4,1.8,0.8,2.5,1.2c1.7-1.6,4.4-2.8,8.6-2.8c3,0,5.1,0.2,6.7,0.8
					c2.9,0.9,4.3,2.8,5,4.1c0.7,1.4,1.1,2.6,1.3,3.8c0.1,0.9,0.2,2.2,0.2,3.8v32.9c0,1.6-0.1,2.9-0.2,3.8c-0.2,1.2-0.5,2.4-1.2,3.8
					C421.1,529.4,417.6,531,412.5,531z M394.7,498c-1.2,0-2.1,0.4-2.8,1.2c-1.1,1.3-1.2,2.3-1.2,2.9c0,0.6,0.1,1.5,1.2,2.6
					c0.8,0.8,1.7,1.2,2.9,1.2c1.1,0,1.9-0.3,2.6-1.1c1.1-1.2,1.2-2.1,1.2-2.7c0-0.6-0.1-1.7-1.2-2.9
					C396.9,498.6,396.3,498,394.7,498z"/>
			</g>
			<g id="XMLID_300_">
				<path id="XMLID_1020_" fill="#62C6FF" d="M411,477.3c2.4,0,4.3,0.2,5.5,0.6c1.2,0.4,2,1,2.5,2c0.5,0.9,0.8,1.8,0.8,2.5
					c0.1,0.7,0.1,1.8,0.1,3.2v32.9c0,1.4,0,2.5-0.1,3.2c-0.1,0.7-0.4,1.6-0.8,2.5c-0.9,1.6-3,2.4-6.4,2.4c-3.4,0-5.7-0.4-6.9-1.3
					c-1.2-0.8-1.8-2.1-2-3.7c-2.3,3.3-6.2,5-11.6,5c-5.4,0-10.5-2.5-15.1-7.4s-7-10.7-7-17.3c0-6.6,2.3-12.3,7-17.2
					c4.7-4.9,9.8-7.4,15.4-7.4c2.1,0,4.1,0.4,5.8,1.1c1.8,0.8,3,1.5,3.7,2.1c0.7,0.7,1.3,1.3,1.7,1.9
					C403.9,479,406.4,477.3,411,477.3 M394.8,510.2c2.3,0,4.2-0.8,5.8-2.5c1.5-1.7,2.3-3.6,2.3-5.6s-0.7-3.9-2.2-5.7
					c-1.5-1.8-3.5-2.6-5.9-2.6s-4.5,0.9-6,2.6c-1.5,1.8-2.3,3.7-2.3,5.7c0,2.1,0.8,3.9,2.4,5.6C390.5,509.4,392.5,510.2,394.8,510.2
					 M411,468.7c-3.7,0-6.7,0.8-9,2.1c-0.1-0.1-0.3-0.1-0.4-0.2c-2.8-1.2-5.9-1.8-9.2-1.8c-8,0-15.3,3.4-21.6,10.1
					c-6.2,6.5-9.4,14.3-9.4,23.1c0,8.8,3.1,16.5,9.3,23.1c6.3,6.7,13.5,10.1,21.3,10.1c4.2,0,7.5-0.7,10.2-1.9
					c2.5,1.3,5.8,1.9,10.3,1.9c8.5,0,12.3-3.8,14-6.9l0.1-0.2l0.1-0.2c0.8-1.8,1.3-3.4,1.5-5c0.1-1.1,0.2-2.5,0.2-4.4v-32.9
					c0-1.8-0.1-3.2-0.2-4.3c-0.2-1.7-0.8-3.4-1.7-5.2c-1.5-3-4.2-5.2-7.6-6.3C416.9,469,414.4,468.7,411,468.7L411,468.7z"/>
			</g>
		</g>
		<g id="XMLID_299_">
			<g id="XMLID_310_">
				<path id="XMLID_1017_" fill="#231F20" d="M435.6,531.2c-2.1,0-8.5,0-11-4.8c-0.7-1.5-1.1-2.7-1.2-3.8c-0.1-0.9-0.2-2.2-0.2-3.9
					v-33c0-1.6,0.1-2.9,0.2-3.8c0.2-1.2,0.5-2.4,1.2-3.8c1.1-2.1,2.9-3.3,4.8-4c-2.7-1-4.1-2.7-4.7-4c-0.7-1.4-1.1-2.7-1.3-3.8
					c-0.1-0.9-0.2-2.2-0.2-3.8c0-1.6,0.1-2.9,0.2-3.8c0.2-1.2,0.6-2.5,1.2-3.8c2.5-4.9,9-4.9,11.2-4.9c2.1,0,8.6,0,11,5
					c0.7,1.3,1.1,2.5,1.3,3.8c0.1,0.9,0.2,2.2,0.2,3.8c0,1.6-0.1,2.9-0.2,3.8c-0.2,1.2-0.6,2.5-1.3,3.9c-0.7,1.3-2,3-4.8,4
					c1.1,0.4,2.1,1,2.9,1.7c1.3,1.1,3,3.3,3.2,7c0.1,0.7,0.1,1.7,0.1,3v32.9c0,1.6-0.1,2.9-0.2,3.8c-0.2,1.3-0.6,2.6-1.4,4
					C444.3,531.2,437.8,531.2,435.6,531.2z"/>
			</g>
			<g id="XMLID_303_">
				<path id="XMLID_1012_" fill="#62C6FF" d="M435.7,454.1c4,0,6.3,0.8,7.2,2.5c0.5,0.9,0.8,1.8,0.9,2.5c0.1,0.7,0.1,1.8,0.1,3.2
					c0,1.4,0,2.5-0.1,3.2c-0.1,0.7-0.4,1.5-0.8,2.4c-0.5,0.9-1.3,1.6-2.5,1.9c-1.2,0.4-2.8,0.6-4.8,0.6c-2,0-3.6-0.2-4.8-0.6
					c-1.2-0.4-2-1-2.5-2c-0.5-0.9-0.8-1.8-0.8-2.5c-0.1-0.7-0.1-1.8-0.1-3.2c0-1.4,0-2.5,0.1-3.2c0.1-0.7,0.4-1.5,0.8-2.4
					C429.3,455,431.7,454.1,435.7,454.1 M435.7,477.4c3,0,5.1,0.5,6.4,1.6c1.1,0.9,1.6,2.2,1.7,4c0.1,0.6,0.1,1.5,0.1,2.7v32.9
					c0,1.4,0,2.5-0.1,3.2c-0.1,0.7-0.4,1.6-0.9,2.5c-0.8,1.6-3.2,2.4-7.2,2.4c-4,0-6.4-0.8-7.2-2.5c-0.4-0.9-0.7-1.8-0.8-2.4
					c-0.1-0.7-0.1-1.8-0.1-3.3v-33c0-1.4,0-2.5,0.1-3.2c0.1-0.7,0.4-1.6,0.8-2.5C429.3,478.2,431.7,477.4,435.7,477.4 M435.7,445.6
					c-7.4,0-12.5,2.4-14.9,7.2c-0.9,1.9-1.5,3.5-1.7,5.2c-0.1,1.1-0.2,2.5-0.2,4.4c0,1.8,0.1,3.2,0.2,4.3c0.2,1.7,0.8,3.4,1.7,5.2
					c0.4,0.7,0.8,1.4,1.3,2.1c-0.5,0.6-0.9,1.2-1.2,1.8l-0.1,0.2l-0.1,0.2c-0.8,1.8-1.3,3.4-1.5,5c-0.1,1.2-0.2,2.5-0.2,4.4v33
					c0,1.9,0.1,3.3,0.2,4.4c0.2,1.6,0.7,3.2,1.5,4.9l0.1,0.2l0.1,0.2c2.5,4.8,7.5,7.2,14.8,7.2c7.4,0,12.4-2.4,14.8-7.1
					c1-1.8,1.6-3.6,1.8-5.3c0.1-1.1,0.2-2.5,0.2-4.4v-32.9c0-1.4,0-2.4-0.1-3.3c-0.2-3.9-1.6-6.6-3.1-8.4c0.6-0.7,1-1.4,1.3-2
					c0.9-1.8,1.5-3.5,1.7-5.2c0.1-1.1,0.2-2.5,0.2-4.4c0-1.8-0.1-3.2-0.2-4.3c-0.2-1.8-0.8-3.5-1.8-5.3
					C448.1,448,443.1,445.6,435.7,445.6L435.7,445.6z"/>
			</g>
		</g>
		<g id="XMLID_302_">
			<g id="XMLID_306_">
				<path id="XMLID_1009_" fill="#231F20" d="M469.8,531.2c-1.9,0-4.2-0.2-6.8-0.5c-6.3-0.8-10.5-3.1-12.6-7
					c-2.1-3.7-3.2-9.2-3.2-16.8v-44.8c0-1.6,0.1-2.9,0.2-3.8c0.2-1.2,0.5-2.4,1.2-3.8c2.6-5,9.1-5,11.2-5c5.5,0,9.1,1.6,10.9,4.7
					c0.8,1.5,1.2,2.8,1.4,4.1c0.1,1,0.2,2.2,0.2,3.8v43.6c0,0.3,0,0.7,0,0.9c1,0,1.7,0.1,2.3,0.2c1,0.2,2,0.7,3.1,1.5
					c3.3,2.2,3.7,6.9,3.7,10.2c0,3.8-0.4,8.5-3.7,10.8C475.8,530.7,473.3,531.2,469.8,531.2z"/>
			</g>
			<g id="XMLID_273_">
				<path id="XMLID_1005_" fill="#62C6FF" d="M459.7,454c3.8,0,6.2,0.8,7.2,2.5c0.5,0.9,0.8,1.8,0.9,2.5c0.1,0.8,0.1,1.9,0.1,3.3
					v43.6c0,2.3,0.2,3.7,0.6,4.3s1.2,0.9,2.5,0.9c1.3,0,2.1,0,2.6,0.1c0.4,0.1,1,0.4,1.6,0.8c1.3,0.8,1.9,3,1.9,6.7
					c0,4-0.6,6.4-1.9,7.2c-1,0.7-2.8,1-5.4,1c-1.7,0-3.8-0.2-6.3-0.5c-4.8-0.6-8-2.2-9.4-4.8c-1.8-3.1-2.6-8-2.6-14.7v-44.8
					c0-1.4,0-2.5,0.1-3.2c0.1-0.7,0.4-1.6,0.8-2.5C453.2,454.8,455.7,454,459.7,454 M459.7,445.4c-7.5,0-12.5,2.4-14.9,7.2l-0.1,0.2
					l-0.1,0.2c-0.8,1.8-1.3,3.4-1.5,5c-0.1,1.1-0.2,2.5-0.2,4.4V507c0,8.3,1.2,14.5,3.8,18.9c2.8,5,8.1,8,15.7,9
					c2.9,0.4,5.3,0.5,7.4,0.5c4.5,0,7.7-0.8,10.2-2.5c5-3.5,5.6-9.8,5.6-14.3c0-2.5,0-10-5.6-13.8c-1.2-0.8-2.3-1.4-3.5-1.8v-40.8
					c0-1.8-0.1-3.2-0.2-4.3c-0.2-1.8-0.8-3.6-1.8-5.5l0-0.1l0-0.1C471.8,447.7,466.9,445.4,459.7,445.4L459.7,445.4z"/>
			</g>
		</g>
	</g>
</g>
</svg>
